<?xml version="1.0" encoding="utf-8"?>
<!-- Generator: Adobe Illustrator 21.0.0, SVG Export Plug-In . SVG Version: 6.00 Build 0)  -->
<svg version="1.1" id="Layer_1" xmlns="http://www.w3.org/2000/svg" xmlns:xlink="http://www.w3.org/1999/xlink" x="0px" y="0px"
	 viewBox="0 0 419.5 595.3" style="enable-background:new 0 0 419.5 595.3;" xml:space="preserve">
<style type="text/css">
	.st0{fill:#1F93D1;}
	.st1{fill:#F6F6F6;}
</style>
<g>
	<path class="st0" d="M373.1,356.9c-0.4,13.3,0,26.6,3,39.7c2.5,11.1,7.4,20.7,16.7,27.6c7.4,5.5,9.5,13.6,6.9,22.5
		c-1.4,4.9-3.8,9.3-6.8,13.3c-1.4,1.9-3.4,3.1-5.7,3.7c-24.4,7-48.8,14.1-73.1,21.1c-2.8,0.8-5.7,0.5-8.3-0.9
		c-19.4-10.9-36.9-24.6-51.1-41.6c-19.2-23-38.3-46.3-53.7-72.2c-1.8-3-1.1-3-4.3-1c-15.3,9.6-30.8,19-45.8,29.1
		c-7.7,5.1-17,2.1-21.2-5.3c-7.4-13.2-15-26.3-22.5-39.4C78.8,303.8,50.4,254.2,22,204.6c-2.1-3.7-3.7-7.5-3.2-12
		c0.5-4.4,2.6-7.8,6.5-10c24.4-13.9,48.8-27.9,73.2-41.8c16.2-9.2,32.4-18.5,48.5-27.7c9.4-5.4,16.9-3.5,22.3,5.9
		c21.2,37,42.3,73.9,63.4,110.9c1.1,2,2.1,2.4,4.2,1.7c7.9-2.6,15.8-5,23.7-7.3c5.4-1.5,11-1.6,16.5-2.4c0.7-0.1,1.4-0.1,2.1-0.2
		c6.8-1.2,12.7,0.7,17.9,5.2c6.4,5.5,12.2,11.7,17.7,18.1c13.7,15.5,26.9,31.5,41.5,46.3c4.7,4.8,7.1,11.1,9.5,17.3
		c3.2,8.3,5.6,16.7,7,25.5c0.7,4.3,0.1,8.6,0.1,12.9C373.1,350.2,373.1,353.6,373.1,356.9z"/>
	<path class="st0" d="M224.6,427.6c-3.9,2.1-7.3,4.2-11.3,4.8c-4.1,0.6-7.6-0.4-10.7-3c-2.5-2.1-4.2-4.8-5.6-7.7
		c-1.2-2.6-0.7-5.1,0.4-7.6c0.5-1.1,1.1-2.1,1.8-3.5c-3.9,1.7-7.4,3.5-11.2,4.1c-6.3,1.1-11.3-0.9-14.9-6.1c-2.8-4-4.9-8.3-2.6-13.3
		c0.4-0.8,0.8-1.5,1.6-2c7.4-4.7,14.8-9.3,22.2-14c1.1-0.7,1.7-0.7,2.4,0.5c12.6,21,28.4,39.6,43.3,58.8c2.5,3.2,2.5,3.1-1.3,4.7
		c-7.3,3.1-16.6-2.7-16.3-10C222.6,431.3,223.5,429.6,224.6,427.6z"/>
	<path class="st1" d="M171.3,303.8c-0.1,5.5,1.2,10.8,3.6,15.7c6.2,12.6,11.9,25.5,18.8,37.8c0.1,0.1,0.2,0.3,0.2,0.4
		c0.8,1.8,3,3.6,2.4,5.2c-0.5,1.4-3,2.2-4.6,3.1c-15.1,9-30.2,18-45.3,27c-3.9,2.3-8.2,1.2-10.7-3.2c-3.1-5.3-6.1-10.6-9.2-15.9
		c-32.9-57.6-65.9-115.2-98.8-172.9c-0.9-1.5-1.8-3-2.2-4.8c-0.8-3.7,0.3-6.4,3.6-8.3C52.1,175,75,161.9,98,148.7
		c17.3-9.9,34.7-19.8,52-29.7c6.7-3.8,10-3,13.8,3.7c22.4,39.2,44.9,78.5,67.3,117.7c13.4,23.5,26.9,47,40.3,70.5
		c0.7,1.2,1.3,2.4,1.6,3.7c0.8,3.3-0.4,6.2-3.3,8c-4,2.5-8,4.9-12,7.4c-1.4,0.9-2.1,0.7-3.1-0.5c-11.1-13.1-22-26.4-33.5-39.2
		c-8.5-9.4-19.5-13.1-32-10.2C178.1,282.6,171.3,292,171.3,303.8z"/>
	<path class="st1" d="M197.3,286.3c7.6,0.4,13.9,3,17.8,10.1c2.7,4.8,5.3,9.6,7.8,14.5c0.7,1.4,0.5,2.2-0.4,3.4
		c-7.4,9-17,14.5-27.7,18.4c-0.7,0.3-1.3,0.4-1.9-0.3c-6.7-7-13.4-13.9-15.4-23.9c-0.3-1.3-0.6-2.7-0.7-4
		c-0.7-8.7,2.3-13.4,10.6-16.4c1.9-0.7,3.8-1.2,5.8-1.5C194.4,286.4,195.8,286.4,197.3,286.3z"/>
</g>
</svg>
